<svg xmlns="http://www.w3.org/2000/svg" width="304" height="264" viewBox="0 0 304 264" shape-rendering="crispEdges">
  <rect x="122" y="62" width="20" height="20" fill="rgba(160, 160, 160, 1)"/>
  <rect x="202" y="62" width="20" height="20" fill="rgba(160, 160, 160, 1)"/>
  <rect x="102" y="82" width="20" height="20" fill="rgba(160, 160, 160, 1)"/>
  <rect x="122" y="82" width="20" height="20" fill="rgba(208, 208, 208, 1)"/>
  <rect x="142" y="82" width="20" height="20" fill="rgba(160, 160, 160, 1)"/>
  <rect x="182" y="82" width="20" height="20" fill="rgba(160, 160, 160, 1)"/>
  <rect x="202" y="82" width="20" height="20" fill="rgba(208, 208, 208, 1)"/>
  <rect x="222" y="82" width="20" height="20" fill="rgba(160, 160, 160, 1)"/>
  <rect x="102" y="102" width="20" height="20" fill="rgba(208, 208, 208, 1)"/>
  <rect x="122" y="102" width="20" height="20" fill="rgba(208, 208, 208, 1)"/>
  <rect x="142" y="102" width="20" height="20" fill="rgba(208, 208, 208, 1)"/>
  <rect x="162" y="102" width="20" height="20" fill="rgba(208, 208, 208, 1)"/>
  <rect x="182" y="102" width="20" height="20" fill="rgba(208, 208, 208, 1)"/>
  <rect x="202" y="102" width="20" height="20" fill="rgba(208, 208, 208, 1)"/>
  <rect x="222" y="102" width="20" height="20" fill="rgba(208, 208, 208, 1)"/>
  <rect x="102" y="122" width="20" height="20" fill="rgba(208, 208, 208, 1)"/>
  <rect x="122" y="122" width="20" height="20" fill="rgba(51, 51, 51, 1)"/>
  <rect x="142" y="122" width="20" height="20" fill="rgba(51, 51, 51, 1)"/>
  <rect x="162" y="122" width="20" height="20" fill="rgba(208, 208, 208, 1)"/>
  <rect x="182" y="122" width="20" height="20" fill="rgba(51, 51, 51, 1)"/>
  <rect x="202" y="122" width="20" height="20" fill="rgba(51, 51, 51, 1)"/>
  <rect x="222" y="122" width="20" height="20" fill="rgba(208, 208, 208, 1)"/>
  <rect x="102" y="142" width="20" height="20" fill="rgba(208, 208, 208, 1)"/>
  <rect x="122" y="142" width="20" height="20" fill="rgba(208, 208, 208, 1)"/>
  <rect x="142" y="142" width="20" height="20" fill="rgba(208, 208, 208, 1)"/>
  <rect x="162" y="142" width="20" height="20" fill="rgba(208, 208, 208, 1)"/>
  <rect x="182" y="142" width="20" height="20" fill="rgba(208, 208, 208, 1)"/>
  <rect x="202" y="142" width="20" height="20" fill="rgba(208, 208, 208, 1)"/>
  <rect x="222" y="142" width="20" height="20" fill="rgba(208, 208, 208, 1)"/>
  <rect x="122" y="162" width="20" height="20" fill="rgba(208, 208, 208, 1)"/>
  <rect x="142" y="162" width="20" height="20" fill="rgba(208, 208, 208, 1)"/>
  <rect x="162" y="162" width="20" height="20" fill="rgba(208, 208, 208, 1)"/>
  <rect x="182" y="162" width="20" height="20" fill="rgba(208, 208, 208, 1)"/>
  <rect x="202" y="162" width="20" height="20" fill="rgba(208, 208, 208, 1)"/>
  <rect x="82" y="182" width="20" height="20" fill="rgba(160, 160, 160, 1)"/>
  <rect x="102" y="182" width="20" height="20" fill="rgba(208, 208, 208, 1)"/>
  <rect x="122" y="182" width="20" height="20" fill="rgba(208, 208, 208, 1)"/>
  <rect x="142" y="182" width="20" height="20" fill="rgba(208, 208, 208, 1)"/>
  <rect x="162" y="182" width="20" height="20" fill="rgba(208, 208, 208, 1)"/>
  <rect x="182" y="182" width="20" height="20" fill="rgba(208, 208, 208, 1)"/>
  <rect x="202" y="182" width="20" height="20" fill="rgba(208, 208, 208, 1)"/>
  <rect x="222" y="182" width="20" height="20" fill="rgba(160, 160, 160, 1)"/>
  <rect x="82" y="202" width="20" height="20" fill="rgba(135, 206, 235, 1)"/>
  <rect x="102" y="202" width="20" height="20" fill="rgba(135, 206, 235, 1)"/>
  <rect x="122" y="202" width="20" height="20" fill="rgba(135, 206, 235, 1)"/>
  <rect x="142" y="202" width="20" height="20" fill="rgba(135, 206, 235, 1)"/>
  <rect x="162" y="202" width="20" height="20" fill="rgba(135, 206, 235, 1)"/>
  <rect x="182" y="202" width="20" height="20" fill="rgba(135, 206, 235, 1)"/>
  <rect x="202" y="202" width="20" height="20" fill="rgba(135, 206, 235, 1)"/>
  <rect x="222" y="202" width="20" height="20" fill="rgba(135, 206, 235, 1)"/>
  <rect x="242" y="202" width="20" height="20" fill="rgba(135, 206, 235, 1)"/>
  <rect x="62" y="222" width="20" height="20" fill="rgba(95, 179, 212, 1)"/>
  <rect x="82" y="222" width="20" height="20" fill="rgba(95, 179, 212, 1)"/>
  <rect x="102" y="222" width="20" height="20" fill="rgba(95, 179, 212, 1)"/>
  <rect x="122" y="222" width="20" height="20" fill="rgba(95, 179, 212, 1)"/>
  <rect x="142" y="222" width="20" height="20" fill="rgba(95, 179, 212, 1)"/>
  <rect x="162" y="222" width="20" height="20" fill="rgba(95, 179, 212, 1)"/>
  <rect x="182" y="222" width="20" height="20" fill="rgba(95, 179, 212, 1)"/>
  <rect x="202" y="222" width="20" height="20" fill="rgba(95, 179, 212, 1)"/>
  <rect x="222" y="222" width="20" height="20" fill="rgba(95, 179, 212, 1)"/>
  <rect x="242" y="222" width="20" height="20" fill="rgba(95, 179, 212, 1)"/>
</svg>
