<svg xmlns="http://www.w3.org/2000/svg" width="264" height="224" viewBox="0 0 264 224" shape-rendering="crispEdges">
  <rect x="102" y="62" width="20" height="20" fill="rgba(180, 148, 116, 1)"/>
  <rect x="122" y="62" width="20" height="20" fill="rgba(180, 148, 116, 1)"/>
  <rect x="142" y="62" width="20" height="20" fill="rgba(180, 148, 116, 1)"/>
  <rect x="162" y="62" width="20" height="20" fill="rgba(180, 148, 116, 1)"/>
  <rect x="182" y="62" width="20" height="20" fill="rgba(160, 120, 80, 1)"/>
  <rect x="82" y="82" width="20" height="20" fill="rgba(196, 164, 132, 1)"/>
  <rect x="102" y="82" width="20" height="20" fill="rgba(212, 180, 148, 1)"/>
  <rect x="122" y="82" width="20" height="20" fill="rgba(212, 180, 148, 1)"/>
  <rect x="142" y="82" width="20" height="20" fill="rgba(212, 180, 148, 1)"/>
  <rect x="162" y="82" width="20" height="20" fill="rgba(212, 180, 148, 1)"/>
  <rect x="182" y="82" width="20" height="20" fill="rgba(212, 180, 148, 1)"/>
  <rect x="202" y="82" width="20" height="20" fill="rgba(196, 164, 132, 1)"/>
  <rect x="62" y="102" width="20" height="20" fill="rgba(196, 164, 132, 1)"/>
  <rect x="82" y="102" width="20" height="20" fill="rgba(180, 148, 116, 1)"/>
  <rect x="102" y="102" width="20" height="20" fill="rgba(160, 160, 160, 1)"/>
  <rect x="122" y="102" width="20" height="20" fill="rgba(212, 180, 148, 1)"/>
  <rect x="142" y="102" width="20" height="20" fill="rgba(212, 180, 148, 1)"/>
  <rect x="162" y="102" width="20" height="20" fill="rgba(212, 180, 148, 1)"/>
  <rect x="182" y="102" width="20" height="20" fill="rgba(160, 160, 160, 1)"/>
  <rect x="202" y="102" width="20" height="20" fill="rgba(180, 148, 116, 1)"/>
  <rect x="222" y="102" width="20" height="20" fill="rgba(196, 164, 132, 1)"/>
  <rect x="82" y="122" width="20" height="20" fill="rgba(160, 160, 160, 1)"/>
  <rect x="102" y="122" width="20" height="20" fill="rgba(208, 208, 208, 1)"/>
  <rect x="122" y="122" width="20" height="20" fill="rgba(160, 160, 160, 1)"/>
  <rect x="142" y="122" width="20" height="20" fill="rgba(160, 160, 160, 1)"/>
  <rect x="162" y="122" width="20" height="20" fill="rgba(160, 160, 160, 1)"/>
  <rect x="182" y="122" width="20" height="20" fill="rgba(208, 208, 208, 1)"/>
  <rect x="202" y="122" width="20" height="20" fill="rgba(160, 160, 160, 1)"/>
  <rect x="82" y="142" width="20" height="20" fill="rgba(208, 208, 208, 1)"/>
  <rect x="102" y="142" width="20" height="20" fill="rgba(208, 208, 208, 1)"/>
  <rect x="122" y="142" width="20" height="20" fill="rgba(208, 208, 208, 1)"/>
  <rect x="142" y="142" width="20" height="20" fill="rgba(208, 208, 208, 1)"/>
  <rect x="162" y="142" width="20" height="20" fill="rgba(208, 208, 208, 1)"/>
  <rect x="182" y="142" width="20" height="20" fill="rgba(208, 208, 208, 1)"/>
  <rect x="202" y="142" width="20" height="20" fill="rgba(208, 208, 208, 1)"/>
  <rect x="82" y="162" width="20" height="20" fill="rgba(208, 208, 208, 1)"/>
  <rect x="102" y="162" width="20" height="20" fill="rgba(68, 68, 68, 1)"/>
  <rect x="122" y="162" width="20" height="20" fill="rgba(208, 208, 208, 1)"/>
  <rect x="142" y="162" width="20" height="20" fill="rgba(208, 208, 208, 1)"/>
  <rect x="162" y="162" width="20" height="20" fill="rgba(208, 208, 208, 1)"/>
  <rect x="182" y="162" width="20" height="20" fill="rgba(68, 68, 68, 1)"/>
  <rect x="202" y="162" width="20" height="20" fill="rgba(208, 208, 208, 1)"/>
  <rect x="102" y="182" width="20" height="20" fill="rgba(208, 208, 208, 1)"/>
  <rect x="122" y="182" width="20" height="20" fill="rgba(208, 208, 208, 1)"/>
  <rect x="142" y="182" width="20" height="20" fill="rgba(208, 208, 208, 1)"/>
  <rect x="162" y="182" width="20" height="20" fill="rgba(208, 208, 208, 1)"/>
  <rect x="182" y="182" width="20" height="20" fill="rgba(208, 208, 208, 1)"/>
</svg>
