<svg xmlns="http://www.w3.org/2000/svg" width="324" height="244" viewBox="0 0 324 244" shape-rendering="crispEdges">
  <rect x="182" y="82" width="20" height="20" fill="rgba(212, 165, 116, 1)"/>
  <rect x="262" y="82" width="20" height="20" fill="rgba(212, 165, 116, 1)"/>
  <rect x="162" y="102" width="20" height="20" fill="rgba(212, 165, 116, 1)"/>
  <rect x="182" y="102" width="20" height="20" fill="rgba(245, 230, 204, 1)"/>
  <rect x="202" y="102" width="20" height="20" fill="rgba(212, 165, 116, 1)"/>
  <rect x="242" y="102" width="20" height="20" fill="rgba(212, 165, 116, 1)"/>
  <rect x="262" y="102" width="20" height="20" fill="rgba(245, 230, 204, 1)"/>
  <rect x="282" y="102" width="20" height="20" fill="rgba(212, 165, 116, 1)"/>
  <rect x="82" y="122" width="20" height="20" fill="rgba(245, 230, 204, 1)"/>
  <rect x="102" y="122" width="20" height="20" fill="rgba(222, 184, 135, 1)"/>
  <rect x="162" y="122" width="20" height="20" fill="rgba(245, 230, 204, 1)"/>
  <rect x="182" y="122" width="20" height="20" fill="rgba(245, 230, 204, 1)"/>
  <rect x="202" y="122" width="20" height="20" fill="rgba(245, 230, 204, 1)"/>
  <rect x="222" y="122" width="20" height="20" fill="rgba(245, 230, 204, 1)"/>
  <rect x="242" y="122" width="20" height="20" fill="rgba(245, 230, 204, 1)"/>
  <rect x="262" y="122" width="20" height="20" fill="rgba(245, 230, 204, 1)"/>
  <rect x="282" y="122" width="20" height="20" fill="rgba(245, 230, 204, 1)"/>
  <rect x="102" y="142" width="20" height="20" fill="rgba(222, 184, 135, 1)"/>
  <rect x="162" y="142" width="20" height="20" fill="rgba(245, 230, 204, 1)"/>
  <rect x="182" y="142" width="20" height="20" fill="rgba(51, 51, 51, 1)"/>
  <rect x="202" y="142" width="20" height="20" fill="rgba(245, 230, 204, 1)"/>
  <rect x="222" y="142" width="20" height="20" fill="rgba(245, 230, 204, 1)"/>
  <rect x="242" y="142" width="20" height="20" fill="rgba(51, 51, 51, 1)"/>
  <rect x="262" y="142" width="20" height="20" fill="rgba(245, 230, 204, 1)"/>
  <rect x="282" y="142" width="20" height="20" fill="rgba(245, 230, 204, 1)"/>
  <rect x="82" y="162" width="20" height="20" fill="rgba(229, 115, 115, 1)"/>
  <rect x="102" y="162" width="20" height="20" fill="rgba(229, 115, 115, 1)"/>
  <rect x="122" y="162" width="20" height="20" fill="rgba(229, 115, 115, 1)"/>
  <rect x="182" y="162" width="20" height="20" fill="rgba(245, 230, 204, 1)"/>
  <rect x="202" y="162" width="20" height="20" fill="rgba(245, 230, 204, 1)"/>
  <rect x="222" y="162" width="20" height="20" fill="rgba(245, 230, 204, 1)"/>
  <rect x="242" y="162" width="20" height="20" fill="rgba(245, 230, 204, 1)"/>
  <rect x="262" y="162" width="20" height="20" fill="rgba(245, 230, 204, 1)"/>
  <rect x="82" y="182" width="20" height="20" fill="rgba(129, 199, 132, 1)"/>
  <rect x="102" y="182" width="20" height="20" fill="rgba(129, 199, 132, 1)"/>
  <rect x="122" y="182" width="20" height="20" fill="rgba(129, 199, 132, 1)"/>
  <rect x="182" y="182" width="20" height="20" fill="rgba(212, 165, 116, 1)"/>
  <rect x="202" y="182" width="20" height="20" fill="rgba(245, 230, 204, 1)"/>
  <rect x="222" y="182" width="20" height="20" fill="rgba(245, 230, 204, 1)"/>
  <rect x="242" y="182" width="20" height="20" fill="rgba(245, 230, 204, 1)"/>
  <rect x="262" y="182" width="20" height="20" fill="rgba(212, 165, 116, 1)"/>
  <rect x="82" y="202" width="20" height="20" fill="rgba(255, 183, 77, 1)"/>
  <rect x="102" y="202" width="20" height="20" fill="rgba(255, 183, 77, 1)"/>
  <rect x="122" y="202" width="20" height="20" fill="rgba(255, 183, 77, 1)"/>
  <rect x="182" y="202" width="20" height="20" fill="rgba(212, 165, 116, 1)"/>
  <rect x="202" y="202" width="20" height="20" fill="rgba(245, 230, 204, 1)"/>
  <rect x="222" y="202" width="20" height="20" fill="rgba(255, 255, 255, 1)"/>
  <rect x="242" y="202" width="20" height="20" fill="rgba(245, 230, 204, 1)"/>
  <rect x="262" y="202" width="20" height="20" fill="rgba(212, 165, 116, 1)"/>
</svg>
