<svg xmlns="http://www.w3.org/2000/svg" width="324" height="264" viewBox="0 0 324 264" shape-rendering="crispEdges">
  <rect x="82" y="102" width="20" height="20" fill="rgba(34, 139, 34, 1)"/>
  <rect x="142" y="102" width="20" height="20" fill="rgba(160, 160, 160, 1)"/>
  <rect x="162" y="102" width="20" height="20" fill="rgba(160, 160, 160, 1)"/>
  <rect x="202" y="102" width="20" height="20" fill="rgba(160, 160, 160, 1)"/>
  <rect x="222" y="102" width="20" height="20" fill="rgba(160, 160, 160, 1)"/>
  <rect x="42" y="122" width="20" height="20" fill="rgba(34, 139, 34, 1)"/>
  <rect x="62" y="122" width="20" height="20" fill="rgba(50, 205, 50, 1)"/>
  <rect x="82" y="122" width="20" height="20" fill="rgba(34, 139, 34, 1)"/>
  <rect x="122" y="122" width="20" height="20" fill="rgba(160, 160, 160, 1)"/>
  <rect x="142" y="122" width="20" height="20" fill="rgba(208, 208, 208, 1)"/>
  <rect x="162" y="122" width="20" height="20" fill="rgba(208, 208, 208, 1)"/>
  <rect x="182" y="122" width="20" height="20" fill="rgba(208, 208, 208, 1)"/>
  <rect x="202" y="122" width="20" height="20" fill="rgba(208, 208, 208, 1)"/>
  <rect x="222" y="122" width="20" height="20" fill="rgba(208, 208, 208, 1)"/>
  <rect x="242" y="122" width="20" height="20" fill="rgba(160, 160, 160, 1)"/>
  <rect x="62" y="142" width="20" height="20" fill="rgba(50, 205, 50, 1)"/>
  <rect x="82" y="142" width="20" height="20" fill="rgba(34, 139, 34, 1)"/>
  <rect x="102" y="142" width="20" height="20" fill="rgba(34, 139, 34, 1)"/>
  <rect x="122" y="142" width="20" height="20" fill="rgba(208, 208, 208, 1)"/>
  <rect x="142" y="142" width="20" height="20" fill="rgba(85, 85, 85, 1)"/>
  <rect x="162" y="142" width="20" height="20" fill="rgba(208, 208, 208, 1)"/>
  <rect x="182" y="142" width="20" height="20" fill="rgba(208, 208, 208, 1)"/>
  <rect x="202" y="142" width="20" height="20" fill="rgba(85, 85, 85, 1)"/>
  <rect x="222" y="142" width="20" height="20" fill="rgba(208, 208, 208, 1)"/>
  <rect x="242" y="142" width="20" height="20" fill="rgba(160, 160, 160, 1)"/>
  <rect x="62" y="162" width="20" height="20" fill="rgba(100, 149, 237, 1)"/>
  <rect x="82" y="162" width="20" height="20" fill="rgba(100, 149, 237, 1)"/>
  <rect x="102" y="162" width="20" height="20" fill="rgba(100, 149, 237, 1)"/>
  <rect x="142" y="162" width="20" height="20" fill="rgba(160, 160, 160, 1)"/>
  <rect x="162" y="162" width="20" height="20" fill="rgba(208, 208, 208, 1)"/>
  <rect x="182" y="162" width="20" height="20" fill="rgba(208, 208, 208, 1)"/>
  <rect x="202" y="162" width="20" height="20" fill="rgba(208, 208, 208, 1)"/>
  <rect x="222" y="162" width="20" height="20" fill="rgba(208, 208, 208, 1)"/>
  <rect x="242" y="162" width="20" height="20" fill="rgba(208, 208, 208, 1)"/>
  <rect x="262" y="162" width="20" height="20" fill="rgba(160, 160, 160, 1)"/>
  <rect x="282" y="162" width="20" height="20" fill="rgba(160, 160, 160, 1)"/>
  <rect x="62" y="182" width="20" height="20" fill="rgba(65, 105, 225, 1)"/>
  <rect x="82" y="182" width="20" height="20" fill="rgba(100, 149, 237, 1)"/>
  <rect x="102" y="182" width="20" height="20" fill="rgba(65, 105, 225, 1)"/>
  <rect x="142" y="182" width="20" height="20" fill="rgba(160, 160, 160, 1)"/>
  <rect x="162" y="182" width="20" height="20" fill="rgba(208, 208, 208, 1)"/>
  <rect x="182" y="182" width="20" height="20" fill="rgba(208, 208, 208, 1)"/>
  <rect x="202" y="182" width="20" height="20" fill="rgba(208, 208, 208, 1)"/>
  <rect x="222" y="182" width="20" height="20" fill="rgba(208, 208, 208, 1)"/>
  <rect x="242" y="182" width="20" height="20" fill="rgba(160, 160, 160, 1)"/>
  <rect x="262" y="182" width="20" height="20" fill="rgba(160, 160, 160, 1)"/>
  <rect x="62" y="202" width="20" height="20" fill="rgba(65, 105, 225, 1)"/>
  <rect x="82" y="202" width="20" height="20" fill="rgba(65, 105, 225, 1)"/>
  <rect x="102" y="202" width="20" height="20" fill="rgba(65, 105, 225, 1)"/>
  <rect x="162" y="202" width="20" height="20" fill="rgba(160, 160, 160, 1)"/>
  <rect x="182" y="202" width="20" height="20" fill="rgba(160, 160, 160, 1)"/>
  <rect x="202" y="202" width="20" height="20" fill="rgba(160, 160, 160, 1)"/>
  <rect x="222" y="202" width="20" height="20" fill="rgba(160, 160, 160, 1)"/>
</svg>
