<svg xmlns="http://www.w3.org/2000/svg" width="364" height="264" viewBox="0 0 364 264" shape-rendering="crispEdges">
  <rect x="82" y="62" width="20" height="20" fill="rgba(212, 165, 116, 1)"/>
  <rect x="182" y="62" width="20" height="20" fill="rgba(212, 165, 116, 1)"/>
  <rect x="62" y="82" width="20" height="20" fill="rgba(212, 165, 116, 1)"/>
  <rect x="82" y="82" width="20" height="20" fill="rgba(245, 230, 204, 1)"/>
  <rect x="102" y="82" width="20" height="20" fill="rgba(212, 165, 116, 1)"/>
  <rect x="162" y="82" width="20" height="20" fill="rgba(212, 165, 116, 1)"/>
  <rect x="182" y="82" width="20" height="20" fill="rgba(245, 230, 204, 1)"/>
  <rect x="202" y="82" width="20" height="20" fill="rgba(212, 165, 116, 1)"/>
  <rect x="62" y="102" width="20" height="20" fill="rgba(245, 230, 204, 1)"/>
  <rect x="82" y="102" width="20" height="20" fill="rgba(245, 230, 204, 1)"/>
  <rect x="102" y="102" width="20" height="20" fill="rgba(245, 230, 204, 1)"/>
  <rect x="122" y="102" width="20" height="20" fill="rgba(245, 230, 204, 1)"/>
  <rect x="142" y="102" width="20" height="20" fill="rgba(245, 230, 204, 1)"/>
  <rect x="162" y="102" width="20" height="20" fill="rgba(245, 230, 204, 1)"/>
  <rect x="182" y="102" width="20" height="20" fill="rgba(245, 230, 204, 1)"/>
  <rect x="202" y="102" width="20" height="20" fill="rgba(245, 230, 204, 1)"/>
  <rect x="62" y="122" width="20" height="20" fill="rgba(245, 230, 204, 1)"/>
  <rect x="82" y="122" width="20" height="20" fill="rgba(51, 51, 51, 1)"/>
  <rect x="102" y="122" width="20" height="20" fill="rgba(245, 230, 204, 1)"/>
  <rect x="122" y="122" width="20" height="20" fill="rgba(245, 230, 204, 1)"/>
  <rect x="142" y="122" width="20" height="20" fill="rgba(245, 230, 204, 1)"/>
  <rect x="162" y="122" width="20" height="20" fill="rgba(51, 51, 51, 1)"/>
  <rect x="182" y="122" width="20" height="20" fill="rgba(245, 230, 204, 1)"/>
  <rect x="202" y="122" width="20" height="20" fill="rgba(245, 230, 204, 1)"/>
  <rect x="62" y="142" width="20" height="20" fill="rgba(245, 230, 204, 1)"/>
  <rect x="82" y="142" width="20" height="20" fill="rgba(51, 51, 51, 1)"/>
  <rect x="102" y="142" width="20" height="20" fill="rgba(245, 230, 204, 1)"/>
  <rect x="122" y="142" width="20" height="20" fill="rgba(245, 230, 204, 1)"/>
  <rect x="142" y="142" width="20" height="20" fill="rgba(245, 230, 204, 1)"/>
  <rect x="162" y="142" width="20" height="20" fill="rgba(51, 51, 51, 1)"/>
  <rect x="182" y="142" width="20" height="20" fill="rgba(245, 230, 204, 1)"/>
  <rect x="202" y="142" width="20" height="20" fill="rgba(245, 230, 204, 1)"/>
  <rect x="42" y="162" width="20" height="20" fill="rgba(212, 165, 116, 1)"/>
  <rect x="62" y="162" width="20" height="20" fill="rgba(245, 230, 204, 1)"/>
  <rect x="82" y="162" width="20" height="20" fill="rgba(245, 230, 204, 1)"/>
  <rect x="102" y="162" width="20" height="20" fill="rgba(245, 230, 204, 1)"/>
  <rect x="122" y="162" width="20" height="20" fill="rgba(245, 230, 204, 1)"/>
  <rect x="142" y="162" width="20" height="20" fill="rgba(245, 230, 204, 1)"/>
  <rect x="162" y="162" width="20" height="20" fill="rgba(245, 230, 204, 1)"/>
  <rect x="182" y="162" width="20" height="20" fill="rgba(245, 230, 204, 1)"/>
  <rect x="202" y="162" width="20" height="20" fill="rgba(245, 230, 204, 1)"/>
  <rect x="222" y="162" width="20" height="20" fill="rgba(245, 230, 204, 1)"/>
  <rect x="242" y="162" width="20" height="20" fill="rgba(245, 230, 204, 1)"/>
  <rect x="262" y="162" width="20" height="20" fill="rgba(245, 230, 204, 1)"/>
  <rect x="282" y="162" width="20" height="20" fill="rgba(212, 165, 116, 1)"/>
  <rect x="42" y="182" width="20" height="20" fill="rgba(212, 165, 116, 1)"/>
  <rect x="62" y="182" width="20" height="20" fill="rgba(255, 255, 255, 1)"/>
  <rect x="82" y="182" width="20" height="20" fill="rgba(255, 255, 255, 1)"/>
  <rect x="102" y="182" width="20" height="20" fill="rgba(245, 230, 204, 1)"/>
  <rect x="122" y="182" width="20" height="20" fill="rgba(245, 230, 204, 1)"/>
  <rect x="142" y="182" width="20" height="20" fill="rgba(245, 230, 204, 1)"/>
  <rect x="162" y="182" width="20" height="20" fill="rgba(245, 230, 204, 1)"/>
  <rect x="182" y="182" width="20" height="20" fill="rgba(245, 230, 204, 1)"/>
  <rect x="202" y="182" width="20" height="20" fill="rgba(245, 230, 204, 1)"/>
  <rect x="222" y="182" width="20" height="20" fill="rgba(255, 255, 255, 1)"/>
  <rect x="242" y="182" width="20" height="20" fill="rgba(255, 255, 255, 1)"/>
  <rect x="262" y="182" width="20" height="20" fill="rgba(212, 165, 116, 1)"/>
  <rect x="282" y="182" width="20" height="20" fill="rgba(212, 165, 116, 1)"/>
  <rect x="42" y="202" width="20" height="20" fill="rgba(144, 198, 149, 1)"/>
  <rect x="62" y="202" width="20" height="20" fill="rgba(144, 198, 149, 1)"/>
  <rect x="82" y="202" width="20" height="20" fill="rgba(144, 198, 149, 1)"/>
  <rect x="102" y="202" width="20" height="20" fill="rgba(144, 198, 149, 1)"/>
  <rect x="122" y="202" width="20" height="20" fill="rgba(144, 198, 149, 1)"/>
  <rect x="142" y="202" width="20" height="20" fill="rgba(144, 198, 149, 1)"/>
  <rect x="162" y="202" width="20" height="20" fill="rgba(144, 198, 149, 1)"/>
  <rect x="182" y="202" width="20" height="20" fill="rgba(144, 198, 149, 1)"/>
  <rect x="202" y="202" width="20" height="20" fill="rgba(144, 198, 149, 1)"/>
  <rect x="222" y="202" width="20" height="20" fill="rgba(144, 198, 149, 1)"/>
  <rect x="242" y="202" width="20" height="20" fill="rgba(144, 198, 149, 1)"/>
  <rect x="262" y="202" width="20" height="20" fill="rgba(144, 198, 149, 1)"/>
  <rect x="282" y="202" width="20" height="20" fill="rgba(144, 198, 149, 1)"/>
  <rect x="302" y="202" width="20" height="20" fill="rgba(112, 166, 117, 1)"/>
  <rect x="62" y="222" width="20" height="20" fill="rgba(112, 166, 117, 1)"/>
  <rect x="82" y="222" width="20" height="20" fill="rgba(112, 166, 117, 1)"/>
  <rect x="102" y="222" width="20" height="20" fill="rgba(112, 166, 117, 1)"/>
  <rect x="122" y="222" width="20" height="20" fill="rgba(112, 166, 117, 1)"/>
  <rect x="142" y="222" width="20" height="20" fill="rgba(112, 166, 117, 1)"/>
  <rect x="162" y="222" width="20" height="20" fill="rgba(112, 166, 117, 1)"/>
  <rect x="182" y="222" width="20" height="20" fill="rgba(112, 166, 117, 1)"/>
  <rect x="202" y="222" width="20" height="20" fill="rgba(112, 166, 117, 1)"/>
  <rect x="222" y="222" width="20" height="20" fill="rgba(112, 166, 117, 1)"/>
  <rect x="242" y="222" width="20" height="20" fill="rgba(112, 166, 117, 1)"/>
  <rect x="262" y="222" width="20" height="20" fill="rgba(112, 166, 117, 1)"/>
  <rect x="282" y="222" width="20" height="20" fill="rgba(112, 166, 117, 1)"/>
</svg>
