<svg xmlns="http://www.w3.org/2000/svg" width="384" height="304" viewBox="0 0 384 304" shape-rendering="crispEdges">
  <rect x="202" y="82" width="20" height="20" fill="rgba(212, 165, 116, 1)"/>
  <rect x="282" y="82" width="20" height="20" fill="rgba(212, 165, 116, 1)"/>
  <rect x="182" y="102" width="20" height="20" fill="rgba(212, 165, 116, 1)"/>
  <rect x="202" y="102" width="20" height="20" fill="rgba(245, 230, 204, 1)"/>
  <rect x="222" y="102" width="20" height="20" fill="rgba(212, 165, 116, 1)"/>
  <rect x="262" y="102" width="20" height="20" fill="rgba(212, 165, 116, 1)"/>
  <rect x="282" y="102" width="20" height="20" fill="rgba(245, 230, 204, 1)"/>
  <rect x="302" y="102" width="20" height="20" fill="rgba(212, 165, 116, 1)"/>
  <rect x="182" y="122" width="20" height="20" fill="rgba(245, 230, 204, 1)"/>
  <rect x="202" y="122" width="20" height="20" fill="rgba(245, 230, 204, 1)"/>
  <rect x="222" y="122" width="20" height="20" fill="rgba(245, 230, 204, 1)"/>
  <rect x="242" y="122" width="20" height="20" fill="rgba(245, 230, 204, 1)"/>
  <rect x="262" y="122" width="20" height="20" fill="rgba(245, 230, 204, 1)"/>
  <rect x="282" y="122" width="20" height="20" fill="rgba(245, 230, 204, 1)"/>
  <rect x="302" y="122" width="20" height="20" fill="rgba(245, 230, 204, 1)"/>
  <rect x="182" y="142" width="20" height="20" fill="rgba(245, 230, 204, 1)"/>
  <rect x="202" y="142" width="20" height="20" fill="rgba(51, 51, 51, 1)"/>
  <rect x="222" y="142" width="20" height="20" fill="rgba(245, 230, 204, 1)"/>
  <rect x="242" y="142" width="20" height="20" fill="rgba(245, 230, 204, 1)"/>
  <rect x="262" y="142" width="20" height="20" fill="rgba(51, 51, 51, 1)"/>
  <rect x="282" y="142" width="20" height="20" fill="rgba(245, 230, 204, 1)"/>
  <rect x="302" y="142" width="20" height="20" fill="rgba(245, 230, 204, 1)"/>
  <rect x="202" y="162" width="20" height="20" fill="rgba(245, 230, 204, 1)"/>
  <rect x="222" y="162" width="20" height="20" fill="rgba(245, 230, 204, 1)"/>
  <rect x="242" y="162" width="20" height="20" fill="rgba(245, 230, 204, 1)"/>
  <rect x="262" y="162" width="20" height="20" fill="rgba(245, 230, 204, 1)"/>
  <rect x="282" y="162" width="20" height="20" fill="rgba(245, 230, 204, 1)"/>
  <rect x="102" y="182" width="20" height="20" fill="rgba(135, 206, 235, 1)"/>
  <rect x="122" y="182" width="20" height="20" fill="rgba(135, 206, 235, 1)"/>
  <rect x="142" y="182" width="20" height="20" fill="rgba(135, 206, 235, 1)"/>
  <rect x="202" y="182" width="20" height="20" fill="rgba(212, 165, 116, 1)"/>
  <rect x="222" y="182" width="20" height="20" fill="rgba(245, 230, 204, 1)"/>
  <rect x="242" y="182" width="20" height="20" fill="rgba(245, 230, 204, 1)"/>
  <rect x="262" y="182" width="20" height="20" fill="rgba(212, 165, 116, 1)"/>
  <rect x="282" y="182" width="20" height="20" fill="rgba(212, 165, 116, 1)"/>
  <rect x="302" y="182" width="20" height="20" fill="rgba(212, 165, 116, 1)"/>
  <rect x="102" y="202" width="20" height="20" fill="rgba(135, 206, 235, 1)"/>
  <rect x="122" y="202" width="20" height="20" fill="rgba(95, 179, 212, 1)"/>
  <rect x="142" y="202" width="20" height="20" fill="rgba(255, 255, 255, 1)"/>
  <rect x="162" y="202" width="20" height="20" fill="rgba(95, 179, 212, 1)"/>
  <rect x="302" y="202" width="20" height="20" fill="rgba(212, 165, 116, 1)"/>
  <rect x="322" y="202" width="20" height="20" fill="rgba(212, 165, 116, 1)"/>
  <rect x="342" y="202" width="20" height="20" fill="rgba(196, 149, 106, 1)"/>
  <rect x="62" y="222" width="20" height="20" fill="rgba(95, 179, 212, 1)"/>
  <rect x="102" y="222" width="20" height="20" fill="rgba(95, 179, 212, 1)"/>
  <rect x="122" y="222" width="20" height="20" fill="rgba(95, 179, 212, 1)"/>
  <rect x="142" y="222" width="20" height="20" fill="rgba(95, 179, 212, 1)"/>
  <rect x="162" y="222" width="20" height="20" fill="rgba(95, 179, 212, 1)"/>
  <rect x="82" y="242" width="20" height="20" fill="rgba(95, 179, 212, 1)"/>
</svg>
