<svg xmlns="http://www.w3.org/2000/svg" width="264" height="224" viewBox="0 0 264 224" shape-rendering="crispEdges">
  <rect x="82" y="62" width="20" height="20" fill="rgba(212, 165, 116, 1)"/>
  <rect x="202" y="62" width="20" height="20" fill="rgba(212, 165, 116, 1)"/>
  <rect x="62" y="82" width="20" height="20" fill="rgba(212, 165, 116, 1)"/>
  <rect x="82" y="82" width="20" height="20" fill="rgba(245, 230, 204, 1)"/>
  <rect x="102" y="82" width="20" height="20" fill="rgba(212, 165, 116, 1)"/>
  <rect x="182" y="82" width="20" height="20" fill="rgba(212, 165, 116, 1)"/>
  <rect x="202" y="82" width="20" height="20" fill="rgba(245, 230, 204, 1)"/>
  <rect x="222" y="82" width="20" height="20" fill="rgba(212, 165, 116, 1)"/>
  <rect x="62" y="102" width="20" height="20" fill="rgba(245, 230, 204, 1)"/>
  <rect x="82" y="102" width="20" height="20" fill="rgba(245, 230, 204, 1)"/>
  <rect x="102" y="102" width="20" height="20" fill="rgba(245, 230, 204, 1)"/>
  <rect x="122" y="102" width="20" height="20" fill="rgba(245, 230, 204, 1)"/>
  <rect x="142" y="102" width="20" height="20" fill="rgba(245, 230, 204, 1)"/>
  <rect x="162" y="102" width="20" height="20" fill="rgba(245, 230, 204, 1)"/>
  <rect x="182" y="102" width="20" height="20" fill="rgba(245, 230, 204, 1)"/>
  <rect x="202" y="102" width="20" height="20" fill="rgba(245, 230, 204, 1)"/>
  <rect x="222" y="102" width="20" height="20" fill="rgba(245, 230, 204, 1)"/>
  <rect x="62" y="122" width="20" height="20" fill="rgba(245, 230, 204, 1)"/>
  <rect x="82" y="122" width="20" height="20" fill="rgba(51, 51, 51, 1)"/>
  <rect x="102" y="122" width="20" height="20" fill="rgba(245, 230, 204, 1)"/>
  <rect x="122" y="122" width="20" height="20" fill="rgba(245, 230, 204, 1)"/>
  <rect x="142" y="122" width="20" height="20" fill="rgba(245, 230, 204, 1)"/>
  <rect x="162" y="122" width="20" height="20" fill="rgba(245, 230, 204, 1)"/>
  <rect x="182" y="122" width="20" height="20" fill="rgba(51, 51, 51, 1)"/>
  <rect x="202" y="122" width="20" height="20" fill="rgba(245, 230, 204, 1)"/>
  <rect x="222" y="122" width="20" height="20" fill="rgba(245, 230, 204, 1)"/>
  <rect x="62" y="142" width="20" height="20" fill="rgba(245, 230, 204, 1)"/>
  <rect x="82" y="142" width="20" height="20" fill="rgba(51, 51, 51, 1)"/>
  <rect x="102" y="142" width="20" height="20" fill="rgba(245, 230, 204, 1)"/>
  <rect x="122" y="142" width="20" height="20" fill="rgba(245, 230, 204, 1)"/>
  <rect x="142" y="142" width="20" height="20" fill="rgba(255, 153, 153, 1)"/>
  <rect x="162" y="142" width="20" height="20" fill="rgba(245, 230, 204, 1)"/>
  <rect x="182" y="142" width="20" height="20" fill="rgba(51, 51, 51, 1)"/>
  <rect x="202" y="142" width="20" height="20" fill="rgba(245, 230, 204, 1)"/>
  <rect x="222" y="142" width="20" height="20" fill="rgba(245, 230, 204, 1)"/>
  <rect x="42" y="162" width="20" height="20" fill="rgba(196, 149, 106, 1)"/>
  <rect x="62" y="162" width="20" height="20" fill="rgba(245, 230, 204, 1)"/>
  <rect x="82" y="162" width="20" height="20" fill="rgba(245, 230, 204, 1)"/>
  <rect x="102" y="162" width="20" height="20" fill="rgba(245, 230, 204, 1)"/>
  <rect x="122" y="162" width="20" height="20" fill="rgba(245, 230, 204, 1)"/>
  <rect x="142" y="162" width="20" height="20" fill="rgba(245, 230, 204, 1)"/>
  <rect x="162" y="162" width="20" height="20" fill="rgba(245, 230, 204, 1)"/>
  <rect x="182" y="162" width="20" height="20" fill="rgba(245, 230, 204, 1)"/>
  <rect x="202" y="162" width="20" height="20" fill="rgba(245, 230, 204, 1)"/>
  <rect x="222" y="162" width="20" height="20" fill="rgba(245, 230, 204, 1)"/>
  <rect x="42" y="182" width="20" height="20" fill="rgba(196, 149, 106, 1)"/>
  <rect x="62" y="182" width="20" height="20" fill="rgba(255, 255, 255, 1)"/>
  <rect x="82" y="182" width="20" height="20" fill="rgba(255, 255, 255, 1)"/>
  <rect x="102" y="182" width="20" height="20" fill="rgba(245, 230, 204, 1)"/>
  <rect x="122" y="182" width="20" height="20" fill="rgba(245, 230, 204, 1)"/>
  <rect x="142" y="182" width="20" height="20" fill="rgba(245, 230, 204, 1)"/>
  <rect x="162" y="182" width="20" height="20" fill="rgba(245, 230, 204, 1)"/>
  <rect x="182" y="182" width="20" height="20" fill="rgba(245, 230, 204, 1)"/>
  <rect x="202" y="182" width="20" height="20" fill="rgba(255, 255, 255, 1)"/>
  <rect x="222" y="182" width="20" height="20" fill="rgba(255, 255, 255, 1)"/>
</svg>
